<svg width="16" height="16" viewBox="0 0 16 16" fill="none" xmlns="http://www.w3.org/2000/svg">
<path fill-rule="evenodd" clip-rule="evenodd" d="M2.25105 2.25105C2.58579 1.91632 3.1285 1.91632 3.46323 2.25105L8 6.78782L12.5368 2.25105C12.8715 1.91632 13.4142 1.91632 13.7489 2.25105C14.0837 2.58579 14.0837 3.1285 13.7489 3.46323L9.21218 8L13.7489 12.5368C14.0837 12.8715 14.0837 13.4142 13.7489 13.7489C13.4142 14.0837 12.8715 14.0837 12.5368 13.7489L8 9.21218L3.46323 13.7489C3.1285 14.0837 2.58579 14.0837 2.25105 13.7489C1.91632 13.4142 1.91632 12.8715 2.25105 12.5368L6.78782 8L2.25105 3.46323C1.91632 3.1285 1.91632 2.58579 2.25105 2.25105Z" fill="#051016"/>
</svg>
