<svg width="80" height="80" viewBox="0 0 80 80" fill="none" xmlns="http://www.w3.org/2000/svg">
<rect width="80" height="80" rx="40" fill="#047558"/>
<path d="M23.2286 37.0099C23.2058 35.5605 23.6769 34.1466 24.5644 33.0008L33.6745 42.1148C32.5263 42.9971 31.115 43.4677 29.6671 43.4511C27.9617 43.4441 26.3282 42.7633 25.1222 41.5568C23.9163 40.3503 23.2357 38.7161 23.2286 37.0099Z" fill="white"/>
<path d="M50.3319 43.4445C51.1849 43.448 52.0301 43.2826 52.819 42.9579C53.6078 42.6332 54.3245 42.1555 54.928 41.5524C55.5314 40.9493 56.0096 40.2328 56.335 39.444C56.6604 38.6551 56.8266 37.8098 56.8239 36.9564C56.8399 35.5081 56.3695 34.0964 55.4881 32.9473L46.3513 42.0881C47.487 42.9769 48.89 43.455 50.3319 43.4445Z" fill="white"/>
<path d="M57.3782 31.0965C58.7827 32.7465 59.5546 34.8427 59.5556 37.0099C59.5538 39.4472 58.5848 41.784 56.8615 43.5069C55.1381 45.2296 52.8016 46.1974 50.3653 46.1974C48.2103 46.1998 46.1238 45.4401 44.4744 44.0525L40.0529 48.4759L35.6314 44.0525C33.9809 45.4426 31.8914 46.2025 29.7339 46.1974C28.5248 46.2018 27.3266 45.9675 26.2082 45.5078C25.0898 45.0481 24.073 44.3722 23.2162 43.5187C22.3593 42.6652 21.6792 41.6509 21.2149 40.5341C20.7505 39.4171 20.5111 38.2196 20.5102 37.0099C20.5119 34.8527 21.2707 32.7646 22.6541 31.1098L20.5903 29.0452L18.6201 27.0406C16.2466 30.9446 14.9941 35.4273 15 39.9967C14.9991 43.281 15.6452 46.5333 16.9014 49.5676C18.1575 52.602 19.999 55.359 22.3207 57.681C24.6423 60.0031 27.3987 61.8446 30.4321 63.1005C33.4656 64.3563 36.7166 65.0018 39.9995 65C46.6246 64.9983 52.9782 62.3664 57.6654 57.6823C62.3526 52.9981 64.9901 46.6446 64.999 40.0167C65.0402 35.4481 63.7999 30.9595 61.419 27.0607L57.3782 31.0965Z" fill="white"/>
<path d="M58.1063 22.7509C55.7751 20.2988 52.9692 18.347 49.8598 17.0145C46.7503 15.682 43.4023 14.9966 40.0196 15C36.6361 14.9984 33.2877 15.6846 30.1774 17.017C27.0671 18.3494 24.2599 20.3001 21.9262 22.7509C21.3184 23.4191 20.724 24.0873 20.1697 24.8022L39.9995 44.6338L59.8295 24.7822C59.3059 24.0635 58.73 23.3846 58.1063 22.7509ZM40.0196 40.0033L24.6579 24.6352C26.6663 22.6045 29.0594 20.9948 31.6971 19.9003C34.3348 18.8058 37.164 18.2484 40.0196 18.2607C42.8757 18.245 45.7059 18.8008 48.3441 19.8955C50.9822 20.9903 53.3749 22.6018 55.3813 24.6352L40.0196 40.0033Z" fill="white"/>
</svg>
