<svg width="16" height="16" viewBox="0 0 16 16" fill="none" xmlns="http://www.w3.org/2000/svg">
<g clip-path="url(#clip0_10005_17822)">
<path fill-rule="evenodd" clip-rule="evenodd" d="M2 8C2 4.68629 4.68629 2 8 2C11.3137 2 14 4.68629 14 8C14 11.3137 11.3137 14 8 14C4.68629 14 2 11.3137 2 8ZM7 5.2C7 4.64772 7.44772 4.2 8 4.2H8.007C8.55928 4.2 9.007 4.64772 9.007 5.2C9.007 5.75228 8.55928 6.2 8.007 6.2H8C7.44772 6.2 7 5.75228 7 5.2ZM8 7C8.55228 7 9 7.44772 9 8V10.8C9 11.3523 8.55228 11.8 8 11.8C7.44772 11.8 7 11.3523 7 10.8V8C7 7.44772 7.44772 7 8 7Z" fill="#051016"/>
<path fill-rule="evenodd" clip-rule="evenodd" d="M8 2C4.68629 2 2 4.68629 2 8C2 11.3137 4.68629 14 8 14C11.3137 14 14 11.3137 14 8C14 4.68629 11.3137 2 8 2ZM0 8C0 3.58172 3.58172 0 8 0C12.4183 0 16 3.58172 16 8C16 12.4183 12.4183 16 8 16C3.58172 16 0 12.4183 0 8Z" fill="#051016"/>
</g>
<defs>
<clipPath id="clip0_10005_17822">
<rect width="16" height="16" fill="white"/>
</clipPath>
</defs>
</svg>
