<svg width="16" height="16" viewBox="0 0 16 16" fill="none" xmlns="http://www.w3.org/2000/svg">
<path d="M7.30541 2.22739C7.50061 2.08168 7.74501 2 7.99996 2C8.25491 2 8.50017 2.08232 8.69536 2.22802L13.987 6.1648H2.01295L7.30541 2.22739Z" fill="#051016"/>
<path d="M0.666626 9.38364V7.49813H15.3333V9.38364C15.3333 9.42278 15.3173 9.46656 15.2787 9.50356C15.239 9.54151 15.1792 9.56769 15.1111 9.56769H0.888848C0.820702 9.56769 0.760915 9.54151 0.72126 9.50356C0.6826 9.46656 0.666626 9.42278 0.666626 9.38364Z" fill="#051016"/>
<path d="M15.2787 10.9652C15.239 10.9272 15.1792 10.901 15.1111 10.901H14.9701L13.1681 12.9706H15.1111C15.1792 12.9706 15.239 12.9444 15.2787 12.9065C15.3173 12.8695 15.3333 12.8257 15.3333 12.7865V11.0851C15.3333 11.0459 15.3173 11.0022 15.2787 10.9652Z" fill="#051016"/>
<path d="M5.52483 10.901H13.2022L10.8333 13.6217L10.8321 13.623C10.6484 13.8306 10.3814 13.9673 10.0849 13.9949C9.78749 14.0225 9.49427 13.9371 9.26821 13.7636L5.52483 10.901Z" fill="#051016"/>
<path d="M3.32983 10.901L6.03624 12.9706H0.888848C0.8207 12.9706 0.760914 12.9444 0.72126 12.9065C0.6826 12.8695 0.666626 12.8257 0.666626 12.7865V11.0851C0.666626 11.0459 0.6826 11.0022 0.72126 10.9652C0.760915 10.9272 0.820702 10.901 0.888848 10.901H3.32983Z" fill="#051016"/>
</svg>
