<svg width="16" height="16" viewBox="0 0 16 16" xmlns="http://www.w3.org/2000/svg">
<g clip-path="url(#clip0_10157_1672)">
<path fill-rule="evenodd" clip-rule="evenodd" d="M7.55669 15.9089L7.74916 16L7.94162 15.9089C8.02944 15.8682 8.11625 15.8279 8.20218 15.7881C8.36788 15.7112 8.53031 15.6358 8.69046 15.562C10.575 14.691 12.0961 13.9879 13.2186 12.6249C13.2196 12.6236 13.2206 12.6224 13.2217 12.6211C13.447 12.347 13.6563 12.0462 13.8492 11.7121C14.1249 11.2344 14.3672 10.6886 14.5751 10.0549C14.5775 10.0478 14.5798 10.0406 14.5822 10.0334C14.6998 9.67246 14.8064 9.2831 14.9017 8.86175C14.9886 8.47804 15.0661 8.06779 15.1342 7.62831C15.1416 7.58109 15.1488 7.53352 15.1559 7.48562C15.2203 7.05105 15.2758 6.58844 15.3221 6.09524C15.3468 5.83312 15.3689 5.56235 15.3884 5.28258C15.3922 5.22859 15.3958 5.17426 15.3994 5.1196C15.4336 4.59708 15.4589 4.04363 15.4754 3.45691C15.482 3.22382 15.4871 2.98549 15.4909 2.74175C15.491 2.73375 15.4911 2.72575 15.4912 2.71774C15.4959 2.40263 15.4983 2.07852 15.4983 1.74507V1.36312L7.74916 0L0 1.36312V1.74507C0 2.08699 0.0024829 2.4191 0.00743403 2.74175C0.0111743 2.98549 0.0163232 3.22382 0.0228743 3.45691C0.0245651 3.51707 0.0263494 3.57688 0.028227 3.63634C0.0465767 4.21747 0.0738381 4.76542 0.10991 5.28258C0.129424 5.56235 0.151517 5.83312 0.176173 6.09524C0.181745 6.15449 0.187448 6.21329 0.193282 6.27166C0.241369 6.75274 0.298336 7.20415 0.364079 7.62831C0.432194 8.0678 0.509731 8.47804 0.596573 8.86175C0.606805 8.90697 0.617166 8.95181 0.627656 8.99629C0.716873 9.37457 0.815419 9.72654 0.923179 10.0549C1.13112 10.6886 1.37336 11.2344 1.64908 11.7121C1.6498 11.7133 1.65051 11.7145 1.65123 11.7158C1.84442 12.05 2.05402 12.3508 2.27975 12.6249C3.40219 13.9879 4.92332 14.691 6.80785 15.562C6.86664 15.5891 6.92584 15.6163 6.98542 15.6437C7.17232 15.7296 7.363 15.8172 7.55669 15.9089ZM3.53017 12.6249C4.47771 13.4842 5.69164 14.0453 7.18752 14.7367C7.2838 14.7808 7.38057 14.8259 7.47832 14.8714C7.56708 14.9127 7.65665 14.9544 7.74741 14.9961C7.88823 14.9301 8.02715 14.866 8.16345 14.8031C8.21174 14.7809 8.25969 14.7587 8.30729 14.7367C9.80317 14.0453 11.0171 13.4842 11.9646 12.6249H3.53017ZM2.71448 11.7121H12.7803C13.1126 11.2489 13.3976 10.7075 13.6366 10.0549H1.85825C2.09718 10.7075 2.38219 11.2489 2.71448 11.7121ZM1.50323 8.86175H13.9916C14.0825 8.48205 14.1628 8.07215 14.2327 7.62831H1.26211C1.33198 8.07215 1.41231 8.48205 1.50323 8.86175ZM1.0748 6.09524H14.42C14.444 5.83406 14.4654 5.56333 14.4842 5.28258H1.01059C1.0294 5.56333 1.05079 5.83406 1.0748 6.09524ZM0.928164 3.45691H14.5666C14.5727 3.22427 14.5775 2.98594 14.5809 2.74175H0.913886C0.917327 2.98594 0.922084 3.22427 0.928164 3.45691Z"/>
</g>
<defs>
<clipPath id="clip0_10157_1672">
<rect width="16" height="16"/>
</clipPath>
</defs>
</svg>
