<svg width="16" height="16" viewBox="0 0 16 16" fill="none" xmlns="http://www.w3.org/2000/svg">
<path fill-rule="evenodd" clip-rule="evenodd" d="M14.0714 1C14.5843 1 15 1.40878 15 1.91304V5.56522C15 6.06948 14.5843 6.47826 14.0714 6.47826H10.3571C9.84431 6.47826 9.42857 6.06948 9.42857 5.56522C9.42857 5.06096 9.84431 4.65217 10.3571 4.65217H11.6515L11.5952 4.60235C11.5949 4.60205 11.5946 4.60176 11.5942 4.60147C10.9266 4.01468 10.1007 3.63022 9.21596 3.49445C8.33077 3.3586 7.42451 3.47748 6.60649 3.83675C5.78848 4.19602 5.09364 4.78034 4.60581 5.51921C4.11797 6.25809 3.85796 7.11997 3.85714 8.0009C3.85668 8.50516 3.44056 8.91357 2.92773 8.91311C2.41489 8.91265 1.99953 8.50349 2 7.99923C2.00114 6.76593 2.36515 5.5593 3.04813 4.52487C3.7311 3.49045 4.70387 2.67241 5.84909 2.16943C6.99431 1.66645 8.26307 1.50002 9.50234 1.6902C10.7416 1.88038 11.8985 2.41906 12.8333 3.24126L12.8355 3.24313L13.1429 3.51516V1.91304C13.1429 1.40878 13.5586 1 14.0714 1ZM14.0723 7.08696C14.5851 7.08742 15.0005 7.49657 15 8.00083C14.9989 9.23413 14.6348 10.4408 13.9519 11.4752C13.2689 12.5096 12.2961 13.3277 11.1509 13.8306C10.0057 14.3336 8.73693 14.5 7.49766 14.3099C6.25839 14.1197 5.10155 13.581 4.16667 12.7588L4.16453 12.7569L3.85714 12.4849V14.087C3.85714 14.5912 3.44141 15 2.92857 15C2.41574 15 2 14.5912 2 14.087V10.4348C2 9.93052 2.41574 9.52174 2.92857 9.52174H6.64286C7.15569 9.52174 7.57143 9.93052 7.57143 10.4348C7.57143 10.939 7.15569 11.3478 6.64286 11.3478H5.34839L5.40476 11.3977C5.40508 11.398 5.4054 11.3983 5.40572 11.3986C6.07333 11.9854 6.89927 12.3698 7.78404 12.5056C8.66923 12.6415 9.57549 12.5226 10.3935 12.1633C11.2115 11.804 11.9064 11.2197 12.3942 10.4809C12.882 9.74198 13.142 8.8801 13.1429 7.99917C13.1433 7.49491 13.5594 7.0865 14.0723 7.08696Z"  fill="#0044A4"/>
</svg>
