<svg width="132" height="32" viewBox="0 0 132 32" fill="none" xmlns="http://www.w3.org/2000/svg">
<path d="M42.9577 23.9687C41.0646 23.9687 39.4934 23.5447 38.2477 22.7002C36.9984 21.8522 36.2321 20.5732 35.9521 18.8597L38.8531 18.1658C39.014 18.9928 39.287 19.6481 39.6684 20.1317C40.0498 20.6153 40.5292 20.9587 41.1031 21.1584C41.677 21.3616 42.2963 21.4598 42.9612 21.4598C43.948 21.4598 44.7073 21.267 45.2427 20.8851C45.7746 20.5031 46.0441 20.009 46.0441 19.4028C46.0441 18.7966 45.7921 18.3551 45.2882 18.0712C44.7843 17.7874 44.039 17.5561 43.0522 17.3774L42.0269 17.1952C41.0191 17.013 40.1023 16.7502 39.28 16.4103C38.4541 16.0669 37.7998 15.5938 37.3169 14.9876C36.834 14.3814 36.5925 13.6069 36.5925 12.6608C36.5925 11.2486 37.1174 10.1553 38.1637 9.38091C39.21 8.60649 40.5992 8.21753 42.3313 8.21753C44.0635 8.21753 45.3757 8.59598 46.4535 9.35288C47.5313 10.1098 48.2311 11.133 48.5531 12.4225L45.6557 13.239C45.4737 12.3314 45.0923 11.6937 44.5079 11.3187C43.9235 10.9473 43.1992 10.758 42.3348 10.758C41.4705 10.758 40.8231 10.9157 40.3402 11.2276C39.8573 11.5395 39.6159 11.9775 39.6159 12.5417C39.6159 13.1479 39.8538 13.5894 40.3263 13.8732C40.7987 14.1571 41.439 14.3673 42.2439 14.5075L43.3006 14.6897C44.3679 14.8719 45.3442 15.1242 46.2295 15.4466C47.1149 15.769 47.8147 16.2315 48.3291 16.8378C48.8435 17.444 49.0989 18.2499 49.0989 19.2556C49.0989 20.7484 48.5461 21.9083 47.4368 22.7318C46.3275 23.5587 44.8403 23.9722 42.9682 23.9722L42.9577 23.9687Z" fill="white"/>
<path d="M51.4297 23.5445V3.7074H54.5405V10.7543H55.0234C55.2229 10.3723 55.5098 9.99737 55.8843 9.63644C56.2552 9.27201 56.7486 8.97765 57.3645 8.74288C57.9768 8.5116 58.7572 8.39597 59.7055 8.39597C60.8322 8.39597 61.833 8.64826 62.7114 9.15286C63.5862 9.65746 64.2755 10.3688 64.7794 11.2834C65.2833 12.2015 65.5353 13.3053 65.5353 14.5948V23.5445H62.4244V14.8366C62.4244 13.5471 62.1025 12.594 61.4586 11.9807C60.8148 11.3675 59.9294 11.0591 58.8027 11.0591C57.5149 11.0591 56.4826 11.4831 55.7058 12.3276C54.929 13.1756 54.544 14.4056 54.544 16.0175V23.548H51.4332L51.4297 23.5445Z" fill="white"/>
<path d="M74.1918 23.8139C73.065 23.8139 72.0572 23.5616 71.1719 23.057C70.2866 22.5524 69.5902 21.8375 69.0898 20.9089C68.5859 19.9803 68.334 18.873 68.334 17.5835V8.63385H71.4448V17.3732C71.4448 18.6628 71.7668 19.6159 72.4106 20.2326C73.0545 20.8494 73.9503 21.1542 75.0981 21.1542C76.3648 21.1542 77.3866 20.7267 78.1635 19.8682C78.9368 19.0132 79.3252 17.7762 79.3252 16.1643V8.63385H82.4361V23.5441H79.3847V21.3049H78.9018C78.6184 21.9111 78.118 22.4788 77.3901 23.0149C76.6658 23.5476 75.5985 23.8174 74.1883 23.8174L74.1918 23.8139Z" fill="white"/>
<path d="M90.1807 23.5445C89.2744 23.5445 88.5536 23.2711 88.0217 22.728C87.4898 22.1848 87.2203 21.4595 87.2203 20.5519V11.2694H84.4209V8.63775H87.2203V3.7074H90.3312V8.63775H93.834V11.2694H90.3312V20.0088C90.3312 20.615 90.6146 20.9163 91.178 20.9163H94.2889V23.548H90.1807V23.5445ZM99.9647 23.5445C99.0584 23.5445 98.334 23.2711 97.7916 22.728C97.2493 22.1848 96.9763 21.4595 96.9763 20.5519V11.2694H93.834V8.63775H96.9763V3.7074H100.087V8.63775H104.556V11.2694H100.087V20.0088C100.087 20.615 100.378 20.9163 100.962 20.9163H104.041V23.548H99.9647V23.5445Z" fill="white"/>
<path d="M113.489 23.9687C111.977 23.9687 110.662 23.6498 109.531 23.0156C108.404 22.3813 107.523 21.4843 106.889 20.3244C106.256 19.1645 105.938 17.8189 105.938 16.2876V15.9232C105.938 14.3708 106.249 13.0147 106.875 11.8548C107.498 10.695 108.37 9.7979 109.486 9.16364C110.602 8.52939 111.897 8.21051 113.366 8.21051C114.836 8.21051 116.05 8.52939 117.128 9.16364C118.206 9.7979 119.046 10.6809 119.651 11.8093C120.257 12.9376 120.557 14.2587 120.557 15.7725V16.9534H109.111C109.15 18.264 109.591 19.3082 110.424 20.0826C111.26 20.8605 112.299 21.246 113.548 21.246C114.717 21.246 115.596 20.9832 116.19 20.4611C116.785 19.9354 117.244 19.3327 117.566 18.6459L120.134 19.9775C119.851 20.5417 119.445 21.1374 118.913 21.7611C118.377 22.3848 117.678 22.9105 116.813 23.3345C115.945 23.7585 114.84 23.9687 113.492 23.9687H113.489ZM109.139 14.5636H117.384C117.303 13.4352 116.901 12.5522 116.176 11.9179C115.452 11.2837 114.504 10.9648 113.338 10.9648C112.173 10.9648 111.218 11.2837 110.483 11.9179C109.748 12.5522 109.3 13.4352 109.139 14.5636Z" fill="white"/>
<path d="M123.204 23.5446V8.6344H126.255V10.39H126.738C126.979 9.76624 127.368 9.3072 127.9 9.01285C128.432 8.722 129.093 8.57483 129.877 8.57483H131.658V11.3887H129.754C128.747 11.3887 127.921 11.6655 127.277 12.2192C126.633 12.7728 126.311 13.6243 126.311 14.7737V23.5446H123.2H123.204Z" fill="white"/>
<path d="M15.4977 0.920959L0.90918 3.48951C0.90918 25.408 5.81167 26.4488 15.4977 30.9937C25.1837 26.4488 30.0862 25.408 30.0862 3.48951L15.4977 0.920959Z" fill="#0044A4"/>
<path d="M15.4983 32L15.1134 31.8178C14.6025 31.576 14.1021 31.3482 13.6157 31.124C4.836 27.0661 0 24.8305 0 3.49015V2.72624L15.4983 0L30.9966 2.72624V3.49015C30.9966 24.8305 26.1606 27.0661 17.3809 31.124C16.8945 31.3482 16.3976 31.5795 15.8832 31.8178L15.4983 32ZM1.81613 4.25405C1.91411 23.7127 5.8613 25.5383 14.375 29.4735C14.7425 29.6417 15.1134 29.8169 15.4948 29.9921C15.8762 29.8134 16.2507 29.6417 16.6146 29.4735C25.1283 25.5383 29.0755 23.7127 29.1735 4.25405L15.4913 1.84669L1.80913 4.25405H1.81613Z" fill="white"/>
<mask id="mask0_10091_2316" style="mask-type:luminance" maskUnits="userSpaceOnUse" x="0" y="0" width="31" height="31">
<path d="M15.4987 0.921326L0.910156 3.48988C0.910156 25.4084 5.81265 26.4491 15.4987 30.994C25.1847 26.4491 30.0872 25.4084 30.0872 3.48988L15.4987 0.921326Z" fill="white"/>
</mask>
<g mask="url(#mask0_10091_2316)">
<path fill-rule="evenodd" clip-rule="evenodd" d="M31.1932 5.4835H-0.195312V0.921082H31.1932V5.4835Z" fill="white"/>
<path fill-rule="evenodd" clip-rule="evenodd" d="M31.1932 10.5652H-0.195312V6.91382H31.1932V10.5652Z" fill="white"/>
<path fill-rule="evenodd" clip-rule="evenodd" d="M31.1932 15.2566H-0.195312V12.1905H31.1932V15.2566Z" fill="white"/>
<path fill-rule="evenodd" clip-rule="evenodd" d="M31.1932 20.1098H-0.195312V17.7235H31.1932V20.1098Z" fill="white"/>
<path fill-rule="evenodd" clip-rule="evenodd" d="M31.1932 25.2498H-0.195312V23.4241H31.1932V25.2498Z" fill="white"/>
</g>
</svg>
